<?xml version="1.0" encoding="UTF-8"?>
<!DOCTYPE svg PUBLIC "-//W3C//DTD SVG 1.1//EN" "http://www.w3.org/Graphics/SVG/1.1/DTD/svg11.dtd">
<svg xmlns="http://www.w3.org/2000/svg" version="1.1" width="740px" height="337px" style="shape-rendering:geometricPrecision; text-rendering:geometricPrecision; image-rendering:optimizeQuality; fill-rule:evenodd; clip-rule:evenodd" xmlns:xlink="http://www.w3.org/1999/xlink">
<g><path style="opacity:1" fill="#fefefe" d="M -0.5,-0.5 C 246.167,-0.5 492.833,-0.5 739.5,-0.5C 739.5,111.833 739.5,224.167 739.5,336.5C 492.833,336.5 246.167,336.5 -0.5,336.5C -0.5,224.167 -0.5,111.833 -0.5,-0.5 Z"/></g>
<g><path style="opacity:1" fill="#0d0d0d" d="M 228.5,58.5 C 232.814,59.2745 237.147,59.9412 241.5,60.5C 243.102,62.0739 245.102,62.7406 247.5,62.5C 275.23,73.2312 293.23,92.8979 301.5,121.5C 303.163,131.419 303.83,141.419 303.5,151.5C 302.151,162.905 298.651,173.572 293,183.5C 270.484,221.864 248.484,260.531 227,299.5C 225.517,303.665 222.684,305.165 218.5,304C 194.82,263.786 171.32,223.62 148,183.5C 127.456,139.535 135.956,102.368 173.5,72C 176.91,69.6284 180.577,67.7951 184.5,66.5C 186.967,66.2451 188.967,65.2451 190.5,63.5C 191.609,63.4431 192.609,63.1098 193.5,62.5C 204.876,59.1424 216.543,57.809 228.5,58.5 Z"/></g>
<g><path style="opacity:1" fill="#adadad" d="M 228.5,58.5 C 216.543,57.809 204.876,59.1424 193.5,62.5C 195.382,61.2488 197.382,60.0821 199.5,59C 209.31,57.504 218.977,57.3374 228.5,58.5 Z"/></g>
<g><path style="opacity:1" fill="#919191" d="M 241.5,60.5 C 243.898,60.2594 245.898,60.9261 247.5,62.5C 245.102,62.7406 243.102,62.0739 241.5,60.5 Z"/></g>
<g><path style="opacity:1" fill="#606060" d="M 190.5,63.5 C 188.967,65.2451 186.967,66.2451 184.5,66.5C 186.033,64.7549 188.033,63.7549 190.5,63.5 Z"/></g>
<g><path style="opacity:1" fill="#bfbfbf" d="M 236.5,70.5 C 224.106,68.9366 211.773,69.2699 199.5,71.5C 201.811,69.9318 204.478,69.0984 207.5,69C 211.5,68.8333 215.5,68.6667 219.5,68.5C 225.417,68.3048 231.084,68.9715 236.5,70.5 Z"/></g>
<g><path style="opacity:1" fill="#f9f9f9" d="M 236.5,70.5 C 272.62,80.3876 291.954,104.054 294.5,141.5C 294.127,147.57 293.293,153.57 292,159.5C 290.078,163.602 288.745,167.935 288,172.5C 265.582,210.999 243.416,249.666 221.5,288.5C 220.098,288.135 219.098,287.301 218.5,286C 198.039,249.572 177.205,213.406 156,177.5C 139.482,141.079 145.982,109.579 175.5,83C 182.863,77.8185 190.863,73.9852 199.5,71.5C 211.773,69.2699 224.106,68.9366 236.5,70.5 Z"/></g>
<g><path style="opacity:1" fill="#0d0d0d" d="M 213.5,82.5 C 241.208,81.2615 261.708,92.5949 275,116.5C 285.63,149.279 276.13,174.445 246.5,192C 214.932,203.669 190.099,195.503 172,167.5C 158.672,137.831 164.505,112.665 189.5,92C 193.076,89.8101 196.743,87.8101 200.5,86C 205.042,85.1333 209.375,83.9666 213.5,82.5 Z"/></g>
<g><path style="opacity:1" fill="#070707" d="M 93.5,193.5 C 87.5362,194.307 81.5362,194.64 75.5,194.5C 54.4343,191.216 40.2676,179.55 33,159.5C 24.1531,131.608 31.3198,109.108 54.5,92C 77.227,80.5086 98.727,82.342 119,97.5C 120.32,103.026 118.153,106.359 112.5,107.5C 108.37,105.265 104.37,102.765 100.5,100C 72.9955,91.3355 54.1622,100.502 44,127.5C 39.5466,152.428 48.7133,170.262 71.5,181C 85.9195,184.145 98.9195,181.145 110.5,172C 117.571,171.254 120.071,174.421 118,181.5C 110.816,187.509 102.649,191.509 93.5,193.5 Z"/></g>
<g><path style="opacity:1" fill="#c3c3c3" d="M 451.5,85.5 C 463.326,84.3403 475.326,84.1737 487.5,85C 488.416,85.2784 489.082,85.7784 489.5,86.5C 476.859,85.6018 464.192,85.2685 451.5,85.5 Z"/></g>
<g><path style="opacity:1" fill="#050505" d="M 332.5,85.5 C 336.594,84.7046 339.761,86.038 342,89.5C 342.037,114.883 342.704,140.216 344,165.5C 349.893,177.707 359.726,183.707 373.5,183.5C 387.235,183.723 397.068,177.723 403,165.5C 404.286,140.208 404.953,114.874 405,89.5C 408.522,84.6023 412.522,84.269 417,88.5C 417.946,115.535 417.613,142.535 416,169.5C 409.242,184.907 397.409,193.407 380.5,195C 360.759,197.651 344.926,191.151 333,175.5C 331.091,171.685 329.758,167.685 329,163.5C 328.333,138.833 328.333,114.167 329,89.5C 329.69,87.6498 330.856,86.3164 332.5,85.5 Z"/></g>
<g><path style="opacity:1" fill="#070707" d="M 451.5,85.5 C 464.192,85.2685 476.859,85.6018 489.5,86.5C 502.547,90.3851 510.714,99.0517 514,112.5C 515.971,127.554 510.638,139.221 498,147.5C 497.257,150.783 497.924,153.783 500,156.5C 505.667,165.167 511.333,173.833 517,182.5C 519.841,188.683 517.841,192.35 511,193.5C 508.497,193.01 506.497,191.677 505,189.5C 497.5,177.333 490,165.167 482.5,153C 476.277,151.419 469.944,151.085 463.5,152C 462.584,152.374 461.75,152.874 461,153.5C 460.667,165.5 460.333,177.5 460,189.5C 455.667,194.833 451.333,194.833 447,189.5C 446.333,156.167 446.333,122.833 447,89.5C 448.371,87.9586 449.871,86.6253 451.5,85.5 Z"/></g>
<g><path style="opacity:1" fill="#050505" d="M 526.5,85.5 C 553.502,85.3334 580.502,85.5 607.5,86C 611.5,89.6667 611.5,93.3333 607.5,97C 597.5,97.3333 587.5,97.6667 577.5,98C 575.667,98.5 574.5,99.6667 574,101.5C 573.667,130.833 573.333,160.167 573,189.5C 570.725,192.939 567.559,194.106 563.5,193C 561.513,191.681 560.346,189.848 560,187.5C 559.667,158.167 559.333,128.833 559,99.5C 558.25,98.8742 557.416,98.3742 556.5,98C 546.5,97.6667 536.5,97.3333 526.5,97C 522.555,93.1694 522.555,89.3361 526.5,85.5 Z"/></g>
<g><path style="opacity:1" fill="#b4b4b4" d="M 228.5,93.5 C 221.401,93.3413 214.401,94.008 207.5,95.5C 207.611,94.8826 207.944,94.3826 208.5,94C 215.301,92.5066 221.968,92.3399 228.5,93.5 Z"/></g>
<g><path style="opacity:1" fill="#fafafa" d="M 228.5,93.5 C 228.833,93.5 229.167,93.5 229.5,93.5C 231.657,94.4067 233.99,95.0733 236.5,95.5C 256.825,102.511 267.825,116.845 269.5,138.5C 268.626,156.249 260.96,170.249 246.5,180.5C 243.486,181.859 240.486,183.192 237.5,184.5C 234.572,184.565 231.905,185.232 229.5,186.5C 203.983,188.991 186.483,178.325 177,154.5C 171.066,132.711 176.899,114.878 194.5,101C 198.374,98.0627 202.707,96.2294 207.5,95.5C 214.401,94.008 221.401,93.3413 228.5,93.5 Z"/></g>
<g><path style="opacity:1" fill="#969696" d="M 229.5,93.5 C 231.527,93.3379 233.527,93.5045 235.5,94C 236.056,94.3826 236.389,94.8826 236.5,95.5C 233.99,95.0733 231.657,94.4067 229.5,93.5 Z"/></g>
<g><path style="opacity:1" fill="#fafafa" d="M 463.5,97.5 C 469.842,97.3338 476.175,97.5005 482.5,98C 498.744,102.989 503.911,113.489 498,129.5C 494.91,133.925 490.743,136.758 485.5,138C 477.587,138.814 469.754,138.647 462,137.5C 460.374,125.263 460.041,112.929 461,100.5C 462.045,99.6266 462.878,98.6266 463.5,97.5 Z"/></g>
<g><path style="opacity:1" fill="#050505" d="M 200.5,110.5 C 200.5,129.833 200.5,149.167 200.5,168.5C 199.167,168.5 197.833,168.5 196.5,168.5C 196.5,149.5 196.5,130.5 196.5,111.5C 197.568,110.566 198.901,110.232 200.5,110.5 Z"/></g>
<g><path style="opacity:1" fill="#404040" d="M 196.5,111.5 C 196.5,130.5 196.5,149.5 196.5,168.5C 197.833,168.5 199.167,168.5 200.5,168.5C 199.081,169.451 197.415,169.784 195.5,169.5C 195.17,149.993 195.503,130.659 196.5,111.5 Z"/></g>
<g><path style="opacity:1" fill="#080808" d="M 647.5,84.5 C 662.311,81.8343 675.477,85.1676 687,94.5C 688.29,96.792 689.957,98.792 692,100.5C 697.193,109.932 694.693,113.766 684.5,112C 673.267,95.5183 658.6,91.8516 640.5,101C 632.354,109.556 632.688,117.889 641.5,126C 644.215,127.908 647.215,129.241 650.5,130C 662.07,130.982 673.07,133.982 683.5,139C 697.438,150.068 700.271,163.568 692,179.5C 685.301,188.102 676.468,192.935 665.5,194C 648.583,196.914 634.083,192.414 622,180.5C 619.683,177.532 618.183,174.199 617.5,170.5C 618.524,165.647 621.524,163.814 626.5,165C 630.377,169.721 634.711,174.054 639.5,178C 653.155,184.779 666.155,183.779 678.5,175C 685.982,158.958 680.982,148.625 663.5,144C 648.02,144.392 635.187,138.892 625,127.5C 616.745,111.348 620.245,98.5142 635.5,89C 639.723,87.7901 643.723,86.2901 647.5,84.5 Z"/></g>
<g><path style="opacity:1" fill="#2f2f2f" d="M 236.5,118.5 C 245.53,118.358 249.363,122.692 248,131.5C 242.649,138.979 236.983,139.312 231,132.5C 230.333,129.167 230.333,125.833 231,122.5C 232.5,120.531 234.333,119.198 236.5,118.5 Z"/></g>
<g><path style="opacity:1" fill="#656565" d="M 301.5,121.5 C 302.963,124.203 303.796,127.203 304,130.5C 304.821,137.679 304.655,144.679 303.5,151.5C 303.83,141.419 303.163,131.419 301.5,121.5 Z"/></g>
<g><path style="opacity:1" fill="#a4a4a4" d="M 200.5,110.5 C 201.495,122.989 201.829,135.656 201.5,148.5C 210.5,148.5 219.5,148.5 228.5,148.5C 228.649,149.552 228.483,150.552 228,151.5C 224.28,150.971 220.614,150.638 217,150.5C 215.319,150.608 214.152,151.275 213.5,152.5C 211.027,152.736 209.36,154.069 208.5,156.5C 208.167,156 207.833,155.5 207.5,155C 208.707,153.7 209.374,152.2 209.5,150.5C 206.833,150.5 204.167,150.5 201.5,150.5C 201.823,156.69 201.49,162.69 200.5,168.5C 200.5,149.167 200.5,129.833 200.5,110.5 Z"/></g>
<g><path style="opacity:1" fill="#e2e2e2" d="M 228.5,148.5 C 229.124,148.917 229.457,149.584 229.5,150.5C 226.07,156.122 224.07,162.122 223.5,168.5C 219.5,168.5 215.5,168.5 211.5,168.5C 211.252,165.42 210.586,162.42 209.5,159.5C 209.667,158.833 209.833,158.167 210,157.5C 210.725,159.949 211.725,162.283 213,164.5C 213.833,162 214.667,159.5 215.5,157C 214.293,155.7 213.626,154.2 213.5,152.5C 214.152,151.275 215.319,150.608 217,150.5C 220.614,150.638 224.28,150.971 228,151.5C 228.483,150.552 228.649,149.552 228.5,148.5 Z"/></g>
<g><path style="opacity:1" fill="#767676" d="M 237.5,184.5 C 235.162,186.04 232.495,186.706 229.5,186.5C 231.905,185.232 234.572,184.565 237.5,184.5 Z"/></g>
<g><path style="opacity:1" fill="#b7b7b7" d="M 93.5,193.5 C 90.3048,195.03 86.8048,195.696 83,195.5C 80.3097,195.497 77.8097,195.164 75.5,194.5C 81.5362,194.64 87.5362,194.307 93.5,193.5 Z"/></g>
</svg>
